<?xml version="1.0" encoding="UTF-8" standalone="no"?>
<svg
   version="1.1"
   width="1200"
   height="666"
   id="svg1"
   xmlns:xlink="http://www.w3.org/1999/xlink"
   xmlns="http://www.w3.org/2000/svg"
   xmlns:svg="http://www.w3.org/2000/svg">
  <defs
     id="defs1">
    <linearGradient
       id="linearGradient17">
      <stop
         style="stop-color:#000000;stop-opacity:1;"
         offset="0"
         id="stop17" />
      <stop
         style="stop-color:#000000;stop-opacity:0;"
         offset="1"
         id="stop18" />
    </linearGradient>
    <linearGradient
       id="linearGradient8">
      <stop
         style="stop-color:#0e0e0e;stop-opacity:1;"
         offset="0.80290139"
         id="stop9" />
      <stop
         style="stop-color:#293853;stop-opacity:0.8392157;"
         offset="0.93518519"
         id="stop11" />
      <stop
         style="stop-color:#1735ce;stop-opacity:0.80392158;"
         offset="0.93518519"
         id="stop12" />
      <stop
         style="stop-color:#b145a6;stop-opacity:0.78571427;"
         offset="0.99989998"
         id="stop10" />
    </linearGradient>
    <radialGradient
       xlink:href="#linearGradient8"
       id="radialGradient10"
       cx="586.91101"
       cy="432.90051"
       fx="586.91101"
       fy="432.90051"
       r="599.95978"
       gradientTransform="matrix(0.99996352,-0.00854145,0.00543734,0.63656016,-2.3324193,117.88069)"
       gradientUnits="userSpaceOnUse" />
    <linearGradient
       xlink:href="#linearGradient17"
       id="linearGradient18"
       x1="586.91101"
       y1="388.43484"
       x2="570.88281"
       y2="583.93158"
       gradientUnits="userSpaceOnUse" />
  </defs>
  <svg
     viewBox="0 0 1199.9195 665.95533"
     version="1.1"
     id="SvgjsSvg1003"
     width="1200"
     height="666"
     transform="scale(1.0000671)">
    <defs
       id="SvgjsDefs1002" />
    <path
       id="SvgjsPath1000"
       style="fill:url(#radialGradient10);fill-opacity:1;fill-rule:nonzero;stroke:url(#linearGradient18);stroke-width:17.9922"
       d="m 599.95842,559.97529 v 17.99744 z M 1181.9326,377.97572 h -17.9843 z m -150.7219,-122.21411 5.8594,-17.01516 z M 599.95842,577.97373 c 162.00987,10e-4 309.39608,-20.51142 416.88248,-54.12551 53.6371,-16.77209 98.3515,-37.11968 130.0455,-60.55398 31.3435,-23.17524 53.0314,-51.798 53.0328,-85.31986 l -35.9722,10e-4 c 0,16.73545 -10.8804,35.99088 -38.4355,56.36578 -27.2043,20.11518 -67.7193,38.98535 -119.3993,55.14875 -103.14586,32.25555 -246.74722,52.48627 -406.15378,52.48627 z M 6.1245023e-8,377.97438 C -0.00133081,411.49624 21.687605,440.12066 53.031818,463.29257 c 31.696246,23.43497 76.408052,43.78123 130.043782,60.55531 107.48674,33.61376 254.87395,54.12585 416.88282,54.12585 V 541.97652 C 440.55286,541.97519 296.95283,521.7448 193.80561,489.48892 142.12469,473.32619 101.61099,454.45502 74.407652,434.34117 46.850618,413.96627 35.97088,394.71284 35.97088,377.97438 Z M 162.84803,238.74545 C 115.0205,255.24116 75.231834,274.84822 47.041607,297.24529 19.052019,319.48154 -3.3261156e-4,346.59191 6.1245023e-8,377.97438 H 35.97088 c 0,-15.6566 9.479593,-33.50154 33.436112,-52.53587 23.757211,-18.87317 59.328478,-36.85263 105.161928,-52.66075 z M 332.88677,110.70623 c -4.73147,4.73495 -9.30989,9.56645 -13.74191,14.48453 l 26.7252,24.09426 c 4.01277,-4.45524 8.16196,-8.83389 12.45423,-13.12598 z m 534.14529,0 c -147.50034,-147.608307 -386.64495,-147.608307 -534.14529,0 l 25.43419,25.45281 c 133.45264,-133.5499929 349.82194,-133.5499929 483.27458,0 z m 13.74192,14.48453 c -4.43202,-4.92141 -9.01044,-9.74958 -13.74192,-14.48453 l -25.43419,25.45281 c 4.28894,4.29209 8.43814,8.67074 12.45091,13.12598 z m 319.14552,252.78362 c 0,-31.38314 -19.0523,-58.49084 -47.0416,-80.72909 -28.1926,-22.3994 -67.9802,-42.00546 -115.8064,-58.49984 l -11.7189,34.03231 c 45.8334,15.80645 81.405,33.78658 105.1602,52.66208 23.9602,19.033 33.4365,36.87927 33.4365,52.53588 z M 854.04911,149.28602 c 46.51123,51.66148 102.73497,99.84501 171.30149,123.49174 l 11.7222,-34.03231 C 976.79936,217.95766 925.48212,174.84805 880.77531,125.19109 Z M 174.56925,272.77776 C 243.13542,249.12969 299.35949,200.9475 345.86939,149.28702 l -26.7252,-24.09759 c -44.70781,49.65995 -96.02505,92.76756 -156.29716,113.55602 z m 181.60026,258.32471 c 11.2697,17.93417 24.7055,34.89239 40.3064,50.50471 112.38159,112.46419 294.58642,112.46419 406.96801,0 15.6019,-15.61332 29.0377,-32.5752 40.30641,-50.50471 -73.40047,11.4511 -156.18936,17.89089 -243.79158,17.89089 -87.59989,0 -170.38845,-6.44312 -243.78924,-17.89089 z M 887.21804,395.19166 c -51.06669,33.56115 -160.49893,56.7587 -287.25696,56.7587 -126.76036,0 -236.19259,-23.19855 -287.25962,-56.7587 -4.71817,-79.32792 23.20488,-160.23749 83.77445,-220.85007 112.38159,-112.463858 294.58609,-112.463858 406.96801,0 60.56825,60.61258 88.49262,141.52248 83.77412,220.85007 z" />
  </svg>
  <style
     id="style1">@media (prefers-color-scheme: light) { :root { filter: none; } }
</style>
</svg>
